<?xml version="1.0" standalone="no"?>
<!DOCTYPE svg PUBLIC "-//W3C//DTD SVG 20010904//EN"
 "http://www.w3.org/TR/2001/REC-SVG-20010904/DTD/svg10.dtd">
<svg version="1.0" xmlns="http://www.w3.org/2000/svg"
 width="600.000000pt" height="600.000000pt" viewBox="0 0 600.000000 600.000000"
 preserveAspectRatio="xMidYMid meet">
<metadata>
Created by potrace 1.14, written by Peter Selinger 2001-2017
</metadata>
<g transform="translate(0.000000,600.000000) scale(0.100000,-0.100000)"
fill="#000000" stroke="none">
<path d="M2745 5980 c-411 -42 -749 -140 -1098 -318 -794 -404 -1375 -1153
-1566 -2017 -51 -233 -65 -367 -65 -650 0 -283 14 -417 65 -650 144 -653 528
-1269 1052 -1687 353 -282 789 -492 1222 -587 233 -51 367 -65 650 -65 283 0
417 14 650 65 434 96 866 303 1225 589 135 107 353 325 460 460 286 359 493
791 589 1225 51 233 65 367 65 650 0 283 -14 417 -65 650 -191 864 -772 1613
-1566 2017 -307 157 -583 245 -938 298 -160 24 -530 35 -680 20z m549 -539
c17 -6 67 -14 111 -20 101 -12 147 -21 160 -31 6 -4 35 -11 65 -15 30 -4 61
-11 70 -15 24 -13 54 -23 63 -21 4 0 26 -8 49 -19 23 -11 46 -20 50 -20 17 0
347 -157 358 -170 3 -4 33 -24 68 -46 102 -64 108 -67 162 -109 78 -60 278
-245 332 -306 114 -130 128 -146 128 -152 0 -4 27 -42 60 -86 33 -44 60 -83
60 -86 0 -3 12 -24 26 -46 49 -78 154 -276 154 -290 0 -5 11 -32 24 -61 29
-63 66 -172 66 -193 0 -8 5 -24 10 -35 6 -11 14 -28 19 -38 5 -10 12 -42 16
-72 4 -30 11 -59 15 -65 4 -5 11 -44 15 -85 4 -41 12 -81 17 -88 13 -16 -14
-48 -57 -68 -16 -8 -50 -27 -75 -43 -25 -17 -56 -36 -70 -44 -14 -8 -76 -44
-139 -81 -62 -36 -116 -66 -119 -66 -3 0 -20 -11 -38 -25 -18 -14 -35 -25 -38
-25 -3 0 -34 -17 -68 -38 -35 -20 -80 -46 -100 -57 -21 -11 -38 -23 -38 -27 0
-5 -4 -8 -10 -8 -8 0 -113 -59 -160 -91 -8 -5 -23 -12 -32 -15 -10 -4 -18 -10
-18 -15 0 -5 -4 -9 -9 -9 -4 0 -39 -18 -77 -41 -38 -22 -78 -46 -89 -52 -11
-6 -47 -28 -80 -48 -33 -19 -67 -39 -75 -43 -16 -7 -23 -12 -116 -68 -34 -21
-67 -38 -73 -38 -6 0 -11 -4 -11 -9 0 -5 -8 -11 -17 -15 -10 -3 -27 -11 -38
-18 -59 -39 -143 -88 -150 -88 -5 0 -23 -11 -41 -25 -18 -14 -35 -25 -39 -25
-3 0 -29 -15 -58 -33 -100 -64 -240 -131 -269 -129 -10 0 -20 -3 -23 -9 -4 -5
-16 -9 -29 -9 -12 0 -27 -5 -34 -12 -16 -16 -343 -17 -363 -2 -8 7 -29 14 -47
17 -17 4 -38 8 -45 10 -6 3 -27 8 -44 12 -18 4 -33 11 -33 15 0 4 -12 11 -26
14 -35 9 -214 127 -214 141 0 6 19 22 43 36 23 13 51 29 62 36 11 7 28 16 38
19 9 3 17 10 17 15 0 5 5 9 12 9 6 0 51 25 100 55 48 30 90 55 92 55 2 0 43
25 92 55 49 30 100 61 114 67 14 7 48 27 77 45 29 18 56 33 61 33 5 0 22 10
37 22 15 12 42 29 59 38 68 36 101 56 113 67 7 6 26 17 43 25 16 7 30 16 30
20 0 5 4 8 10 8 5 0 50 25 100 55 50 30 93 55 96 55 2 0 33 17 67 39 81 50
259 155 272 160 6 2 49 28 97 57 48 30 91 54 94 54 4 0 22 11 40 25 18 14 35
25 39 25 3 0 34 18 69 40 35 22 67 40 71 40 5 0 19 10 31 21 17 16 21 26 13
40 -5 11 -13 27 -18 37 -5 10 -12 32 -16 50 -3 18 -10 32 -13 32 -4 0 -16 21
-26 48 -10 26 -29 61 -40 77 -12 17 -27 42 -33 56 -6 14 -32 51 -57 82 -25 31
-46 61 -46 66 0 11 -269 271 -281 271 -5 0 -28 15 -52 33 -37 29 -235 131
-307 160 -14 5 -33 13 -42 18 -9 5 -35 12 -58 15 -22 4 -43 10 -45 15 -3 4
-41 11 -85 15 -44 3 -83 11 -86 15 -7 12 -391 12 -398 0 -3 -4 -38 -11 -77
-15 -40 -3 -77 -10 -83 -15 -6 -4 -30 -11 -54 -15 -24 -3 -51 -10 -60 -15 -9
-5 -28 -13 -42 -19 -14 -6 -55 -24 -91 -41 -37 -17 -70 -31 -74 -31 -5 0 -23
-11 -41 -25 -18 -14 -36 -25 -40 -25 -4 0 -22 -11 -40 -25 -18 -14 -35 -25
-39 -25 -3 0 -47 -35 -98 -78 -133 -112 -212 -200 -291 -321 -53 -82 -136
-239 -136 -258 0 -7 -4 -13 -10 -13 -5 0 -10 -10 -10 -22 0 -13 -7 -36 -15
-52 -8 -15 -15 -37 -15 -47 0 -10 -4 -20 -9 -23 -5 -4 -12 -30 -16 -59 -4 -28
-11 -56 -15 -62 -8 -10 -33 -247 -33 -320 -1 -66 25 -309 33 -320 4 -5 11 -34
15 -62 4 -29 11 -55 16 -59 19 -11 8 -44 -24 -68 -19 -15 -37 -26 -40 -26 -4
0 -31 -16 -61 -35 -30 -19 -58 -35 -61 -35 -4 0 -20 -10 -37 -21 -16 -12 -48
-31 -71 -44 -61 -32 -91 -49 -97 -55 -3 -3 -22 -14 -42 -25 -21 -11 -38 -23
-38 -26 0 -4 -13 -10 -30 -14 -17 -4 -30 -10 -30 -14 0 -3 -17 -15 -37 -26
-21 -10 -45 -25 -53 -32 -21 -17 -149 -83 -161 -83 -5 0 -14 12 -20 28 -6 15
-16 39 -24 54 -7 15 -16 45 -20 68 -4 22 -10 42 -15 45 -5 3 -11 24 -15 48 -4
23 -11 47 -15 52 -4 6 -10 24 -13 40 -4 17 -13 64 -21 105 -8 41 -17 84 -20
95 -13 40 -29 274 -29 410 0 155 18 388 32 421 5 11 12 51 16 87 4 37 11 70
16 73 5 3 9 18 9 34 0 16 4 31 9 34 5 3 12 26 15 51 4 24 11 47 16 50 4 3 11
23 15 45 4 22 15 57 25 78 10 21 22 51 26 67 7 29 124 262 162 325 12 19 25
42 28 50 4 8 22 34 41 57 18 23 33 44 33 48 0 25 222 281 339 390 101 94 213
185 244 197 9 4 17 12 17 18 0 5 4 10 9 10 5 0 37 18 70 40 33 22 63 40 67 40
4 0 21 10 38 23 27 21 108 62 241 123 41 18 183 71 220 80 11 3 29 10 40 14
11 5 43 14 70 20 28 6 68 16 90 21 22 6 84 16 137 23 54 7 101 15 105 19 10
11 512 8 547 -2z m-89 -1530 c5 -5 21 -11 35 -14 56 -12 70 -16 116 -37 93
-40 155 -75 176 -97 12 -13 26 -23 30 -23 12 0 38 -26 38 -37 0 -8 -132 -93
-145 -93 -3 0 -21 -11 -39 -25 -18 -14 -36 -25 -40 -25 -4 0 -32 -16 -62 -35
-30 -19 -58 -35 -63 -35 -5 0 -14 -6 -20 -14 -7 -8 -29 -22 -49 -32 -20 -9
-72 -39 -114 -66 -43 -26 -80 -48 -83 -48 -2 0 -34 -18 -70 -40 -36 -22 -68
-40 -72 -40 -3 0 -14 -6 -22 -14 -9 -8 -43 -29 -76 -47 -33 -17 -67 -38 -75
-45 -8 -7 -26 -17 -40 -23 -25 -11 -61 -32 -70 -41 -3 -3 -18 -12 -35 -20 -16
-8 -43 -24 -60 -35 -48 -32 -68 -44 -95 -58 -14 -7 -68 -38 -122 -70 -53 -31
-100 -57 -105 -57 -19 0 -33 71 -33 173 0 58 4 108 9 111 4 3 11 36 14 72 4
37 11 72 17 78 5 5 10 18 10 27 0 9 13 44 30 77 17 34 30 66 30 71 0 6 4 11 9
11 5 0 12 8 15 18 10 27 31 61 55 86 11 12 21 27 21 33 0 34 257 232 324 249
14 3 26 10 26 15 0 5 10 9 23 9 13 0 27 3 31 8 4 4 11 7 14 8 18 2 69 17 87
25 11 4 40 10 65 13 67 6 303 -4 315 -13z m2170 -1358 c-5 -43 -13 -82 -16
-88 -4 -5 -10 -35 -14 -65 -7 -52 -10 -61 -32 -105 -6 -12 -14 -40 -18 -64 -4
-23 -13 -55 -21 -69 -8 -15 -14 -32 -14 -38 0 -5 -11 -34 -25 -62 -14 -29 -25
-56 -25 -60 0 -13 -105 -214 -143 -274 -21 -31 -37 -60 -37 -63 0 -3 -27 -42
-60 -86 -33 -44 -60 -82 -60 -85 0 -5 -62 -79 -150 -177 -79 -88 -305 -285
-385 -337 -130 -83 -216 -133 -305 -176 -129 -64 -196 -94 -208 -94 -4 0 -27
-9 -50 -20 -23 -11 -45 -19 -49 -19 -9 2 -39 -8 -63 -21 -9 -4 -40 -11 -70
-15 -30 -4 -59 -11 -65 -15 -13 -10 -59 -19 -160 -31 -44 -6 -96 -15 -115 -20
-54 -15 -525 -5 -645 14 -135 21 -168 28 -180 37 -5 4 -32 11 -60 15 -27 4
-54 10 -60 15 -5 4 -24 10 -42 13 -17 4 -51 15 -75 26 -24 11 -54 22 -68 26
-72 19 -307 139 -422 215 -33 22 -62 40 -64 40 -3 0 -10 4 -17 10 -38 31 -98
78 -127 100 -68 51 -219 198 -324 317 -83 95 -106 126 -97 136 6 8 35 26 66
42 30 16 55 33 55 37 0 4 4 8 9 8 10 0 241 132 283 161 14 11 29 19 32 19 3 0
54 29 112 65 59 36 108 65 111 65 2 0 29 16 60 36 l56 35 46 -48 c50 -54 224
-203 235 -203 4 0 22 -11 40 -25 18 -14 36 -25 40 -25 4 0 22 -11 40 -25 18
-14 36 -25 41 -25 4 0 37 -14 74 -31 36 -17 77 -35 91 -41 14 -6 32 -14 40
-18 9 -4 36 -11 60 -15 25 -4 50 -11 56 -16 6 -5 43 -12 83 -15 39 -4 74 -11
77 -15 7 -12 380 -11 402 0 9 5 49 14 87 19 81 11 149 28 185 44 14 6 34 14
45 18 38 14 260 123 275 136 8 6 38 24 65 40 28 15 52 30 55 33 3 4 16 12 30
18 40 20 134 74 150 87 8 7 22 16 30 19 8 4 33 18 55 31 44 27 158 94 190 110
11 6 34 21 52 34 17 12 34 22 37 22 5 0 121 67 156 91 8 5 23 12 33 15 9 4 17
10 17 15 0 5 4 9 10 9 5 0 50 25 101 55 50 30 93 55 95 55 2 0 28 16 58 35 30
19 58 35 62 35 4 0 22 11 40 25 18 14 37 25 42 25 5 0 20 8 33 19 13 10 44 29
69 42 25 14 56 32 70 41 41 27 115 66 120 62 4 -1 1 -38 -5 -81z"/>
</g>
</svg>
